<svg xmlns="http://www.w3.org/2000/svg" viewBox="0 0 28.35 28.35"><defs><style>.cls-1{fill:#343a40;}.cls-2{fill:#007bff;}</style></defs><title>Recurso 5</title><g id="Capa_2" data-name="Capa 2"><g id="Capa_1-2" data-name="Capa 1"><path class="cls-1" d="M28.19,18.26a13.71,13.71,0,0,0-2-3c-.26-.32-.56-.61-.78-.61H3a1.09,1.09,0,0,0-1,.61,30.82,30.82,0,0,0-1.83,3,12.64,12.64,0,0,0,0,4.59,2.36,2.36,0,0,0,1.53,2,.44.44,0,0,1,.29.38c.06.78,0,1.57,0,2.36,0,.61.24.81,1,.83s1.55,0,2.33,0,1-.23,1-.89c0-.84,0-1.66,0-2.54H22c0,.91,0,1.79,0,2.66,0,.57.22.75.9.77s1.56,0,2.34,0,1-.21,1-.88,0-1.56,0-2.34a.41.41,0,0,1,.27-.35,2.47,2.47,0,0,0,1.57-2A13.65,13.65,0,0,0,28.19,18.26ZM5.5,22.2a1.79,1.79,0,0,1-1.75-1.8,1.66,1.66,0,0,1,1.74-1.6,1.73,1.73,0,0,1,1.66,1.79A1.61,1.61,0,0,1,5.5,22.2ZM23,22.2a1.74,1.74,0,0,1-1.73-1.8A1.64,1.64,0,0,1,23,18.8a1.75,1.75,0,0,1,1.68,1.75A1.62,1.62,0,0,1,23,22.2Z"/><path class="cls-2" d="M25.4,9.88v0c0,.27,0,.53-.08.77a4.66,4.66,0,0,1-.17.77,4.77,4.77,0,0,1-.21.61,5.08,5.08,0,0,1-.31.59A.76.76,0,0,1,24,13H3.85a.8.8,0,0,1-.71-.41,4,4,0,0,1-.36-1.14,5.37,5.37,0,0,1-.08-.77,6.7,6.7,0,0,1,0-.77A5,5,0,0,1,7.79,5.68h0a1.79,1.79,0,0,1,0-.23A5.62,5.62,0,0,1,13.57,0h.13a5.88,5.88,0,0,1,3.1.92,5.47,5.47,0,0,1,2.37,3.12c0,.14.07.27.09.4h.36A5.62,5.62,0,0,1,25.4,9.88Z"/></g></g></svg>